# xmcd CD database file
#
# Track frame offsets:
#	150
#	16840
#	29953
#	44998
#	60898
#	77548
#	90708
#	107700
#	121268
#	132353
#
# Disc length: 2058 seconds
#
# Revision: 2
# Processed by: cddbd v1.5.1PL0 Copyright (c) Steve Scherf et al.
# Submitted via: CDex 1.51
#
DISCID=8108080a
DTITLE=Diamond Rio - Love A Little Stronger
DYEAR=1994
DGENRE=Country
TTITLE0=Love A Little Stronger
TTITLE1=You Ain't In It
TTITLE2=Finish What We Started
TTITLE3=Night Is Fallin' in my Heart
TTITLE4=Down By The Riverside
TTITLE5=Wild Blue Yonder
TTITLE6=Bubba Hyde
TTITLE7=Gone Out Of My Mind
TTITLE8=Appalachian Dream
TTITLE9=Kentucky Mine
EXTD=YEAR: 1994
EXTT0=
EXTT1=
EXTT2=
EXTT3=
EXTT4=
EXTT5=
EXTT6=
EXTT7=
EXTT8=
EXTT9=
PLAYORDER=
